<?xml version="1.0" encoding="UTF-8"?>
<svg id="Calque_1" data-name="Calque 1" xmlns="http://www.w3.org/2000/svg" viewBox="0 0 1359.24 129.56">
  <defs>
    <style>
      .cls-1 {
        fill: #9d9d9c;
      }
    </style>
  </defs>
  <path class="cls-1" d="M10.16,101.31V.68h10.1v100.63h-10.1Z"/>
  <path class="cls-1" d="M116.68,65.97c0,1.23-.09,2.75-.27,4.57H51.9c1.22,5.87,4.31,10.6,9.28,14.19,4.97,3.59,11.07,5.39,18.3,5.39,10.53,0,18.57-3.02,24.12-9.07h11.86c-3.07,6.69-7.83,12.02-14.27,16-6.44,3.98-13.77,5.97-21.99,5.97-10.84,0-19.87-3.57-27.07-10.71-7.21-7.14-10.81-16.02-10.81-26.64s3.6-19.49,10.81-26.61c7.21-7.12,16.18-10.68,26.94-10.68s19.71,3.56,26.87,10.68c7.16,7.12,10.74,16.09,10.74,26.91ZM97.03,46.6c-5.02-3.59-11-5.39-17.96-5.39s-12.93,1.8-17.92,5.39c-4.99,3.59-8.08,8.28-9.25,14.05h54.48c-1.22-5.78-4.34-10.46-9.35-14.05Z"/>
  <path class="cls-1" d="M237.97,30.09h10.16v63.52c0,10.82-3.31,19.52-9.93,26.1-6.62,6.57-15.35,9.86-26.19,9.86-8.72,0-16.07-2.17-22.06-6.52-5.99-4.34-10.13-10.34-12.43-17.98h10.91c1.94,3.82,5,6.86,9.18,9.11,4.18,2.25,8.98,3.38,14.4,3.38,7.86,0,14.15-2.2,18.87-6.58,4.72-4.39,7.08-10.22,7.08-17.5v-10.03c-2.85,5.59-6.83,10.02-11.96,13.27-5.13,3.25-10.94,4.88-17.45,4.88-10.07,0-18.49-3.47-25.24-10.4-6.75-6.94-10.13-15.66-10.13-26.16s3.38-19.13,10.13-26.13c6.75-7,15.17-10.51,25.24-10.51,6.46,0,12.29,1.63,17.48,4.88,5.19,3.25,9.17,7.72,11.93,13.41v-16.58ZM210.93,89.58c7.68,0,14.11-2.35,19.28-7.06s7.76-10.55,7.76-17.53-2.59-12.8-7.76-17.47c-5.17-4.66-11.6-6.99-19.28-6.99s-14.24,2.33-19.41,6.99c-5.17,4.66-7.76,10.48-7.76,17.47s2.59,12.83,7.76,17.53c5.17,4.71,11.64,7.06,19.41,7.06Z"/>
  <path class="cls-1" d="M333.68,92.31c-7.16,7.14-16.12,10.71-26.87,10.71s-19.73-3.57-26.94-10.71c-7.21-7.14-10.81-16.02-10.81-26.64s3.6-19.49,10.81-26.61c7.21-7.12,16.18-10.68,26.94-10.68s19.71,3.56,26.87,10.68c7.16,7.12,10.74,15.99,10.74,26.61s-3.58,19.5-10.74,26.64ZM306.81,90.26c7.68,0,14.11-2.35,19.28-7.06,5.17-4.71,7.76-10.55,7.76-17.53s-2.59-12.83-7.76-17.53c-5.17-4.71-11.6-7.06-19.28-7.06s-14.24,2.35-19.41,7.06c-5.17,4.71-7.76,10.55-7.76,17.53s2.59,12.83,7.76,17.53c5.17,4.71,11.64,7.06,19.41,7.06Z"/>
  <path class="cls-1" d="M418.08,30.09h10.1v71.23h-10.1v-14.4c-5.29,10.73-13.94,16.1-25.95,16.1-8.22,0-14.89-2.57-19.99-7.71-5.11-5.14-7.66-11.94-7.66-20.4V30.09h10.16v41.48c0,5.69,1.94,10.22,5.83,13.61,3.88,3.39,9.01,5.08,15.38,5.08s12-1.74,16.09-5.22c4.09-3.48,6.13-8.06,6.13-13.75V30.09ZM396.39,11.33l-9.15,9.48h-12.2l13.89-18.15h14.98l13.89,18.15h-11.25l-9.22-9.48h-.95Z"/>
  <path class="cls-1" d="M494.51,42.5h-22.5v36.84c0,6.23,3.5,9.37,10.5,9.42h10.57v12.55h-11.38c-13.24,0-19.85-6.44-19.85-19.31v-39.5h-15.25v-12.42h15.25V11.46l10.16-2.39v21.01h22.5v12.42Z"/>
  <path class="cls-1" d="M614.85.68h10.03v100.63h-10.03v-17.19c-2.76,5.87-6.7,10.48-11.83,13.85-5.13,3.37-10.99,5.05-17.58,5.05-10.07,0-18.49-3.57-25.24-10.71-6.75-7.14-10.13-16.02-10.13-26.64s3.38-19.49,10.13-26.61c6.75-7.12,15.17-10.68,25.24-10.68,6.55,0,12.4,1.67,17.55,5.01,5.15,3.34,9.1,7.95,11.86,13.82V.68ZM568.26,83.2c5.17,4.71,11.64,7.06,19.41,7.06s14.24-2.35,19.41-7.06,7.76-10.55,7.76-17.53-2.59-12.83-7.76-17.53-11.64-7.06-19.41-7.06-14.24,2.35-19.41,7.06c-5.17,4.71-7.76,10.55-7.76,17.53s2.58,12.83,7.76,17.53Z"/>
  <path class="cls-1" d="M721.43,65.97c0,1.23-.09,2.75-.27,4.57h-64.51c1.22,5.87,4.31,10.6,9.28,14.19,4.97,3.59,11.07,5.39,18.3,5.39,10.53,0,18.57-3.02,24.12-9.07h11.86c-3.07,6.69-7.83,12.02-14.26,16-6.44,3.98-13.77,5.97-21.99,5.97-10.84,0-19.87-3.57-27.07-10.71-7.21-7.14-10.81-16.02-10.81-26.64s3.6-19.49,10.81-26.61c7.21-7.12,16.18-10.68,26.94-10.68s19.71,3.56,26.87,10.68c7.16,7.12,10.74,16.09,10.74,26.91ZM701.78,46.6c-5.01-3.59-11-5.39-17.96-5.39s-12.93,1.8-17.92,5.39c-4.99,3.59-8.08,8.28-9.25,14.05h54.48c-1.22-5.78-4.34-10.46-9.35-14.05Z"/>
  <path class="cls-1" d="M791.29,97.08c-5.92,3.96-13.41,5.94-22.46,5.94s-16.52-2.26-22.4-6.79c-5.87-4.52-8.81-10.24-8.81-17.16h10.37c0,3.37,1.94,6.1,5.83,8.19,3.88,2.09,8.94,3.14,15.18,3.14s11.07-.89,14.91-2.66c3.84-1.77,5.76-4.09,5.76-6.96,0-2.5-1.88-4.57-5.62-6.21-3.75-1.64-9.65-3.07-17.69-4.3-18.34-2.68-27.51-9.57-27.51-20.67,0-6.5,2.82-11.67,8.47-15.49,5.65-3.82,12.83-5.73,21.55-5.73s16.03,2.16,21.65,6.48c5.62,4.32,8.44,9.85,8.44,16.58h-10.57c0-3.09-1.8-5.62-5.39-7.57-3.59-1.96-8.3-2.93-14.13-2.93s-10.41.84-14.03,2.52c-3.62,1.68-5.42,3.87-5.42,6.55,0,2.41,1.83,4.41,5.49,6,3.66,1.59,9.33,2.96,17.01,4.09,18.88,3,28.3,9.94,28.26,20.81,0,6.82-2.96,12.21-8.88,16.17Z"/>
  <path class="cls-1" d="M891.71,12.42c-6.96,0-10.41,3.23-10.37,9.69v7.98h20.4v12.42h-20.4v58.81h-10.17v-58.81h-15.65v-12.42h15.65v-10.78c0-12.87,6.62-19.31,19.86-19.31h10.71v12.42h-10.03Z"/>
  <path class="cls-1" d="M987.72,65.97c0,1.23-.09,2.75-.27,4.57h-64.51c1.22,5.87,4.31,10.6,9.28,14.19,4.97,3.59,11.07,5.39,18.3,5.39,10.53,0,18.57-3.02,24.12-9.07h11.86c-3.07,6.69-7.83,12.02-14.26,16-6.44,3.98-13.77,5.97-21.99,5.97-10.84,0-19.87-3.57-27.07-10.71-7.21-7.14-10.81-16.02-10.81-26.64s3.6-19.49,10.81-26.61c7.21-7.12,16.18-10.68,26.94-10.68s19.71,3.56,26.87,10.68c7.16,7.12,10.74,16.09,10.74,26.91ZM968.07,46.6c-5.01-3.59-11-5.39-17.96-5.39s-12.93,1.8-17.92,5.39c-4.99,3.59-8.08,8.28-9.25,14.05h54.48c-1.22-5.78-4.34-10.46-9.35-14.05Z"/>
  <path class="cls-1" d="M1061.24,30.09h10.1v71.23h-10.1v-14.4c-5.29,10.73-13.94,16.1-25.95,16.1-8.22,0-14.89-2.57-19.99-7.71-5.11-5.14-7.66-11.94-7.66-20.4V30.09h10.16v41.48c0,5.69,1.94,10.22,5.83,13.61,3.88,3.39,9.01,5.08,15.38,5.08s12-1.74,16.09-5.22c4.09-3.48,6.13-8.06,6.13-13.75V30.09Z"/>
  <path class="cls-1" d="M1107.93,13.78c-1.58,1.46-3.52,2.18-5.83,2.18s-4.25-.73-5.83-2.18c-1.58-1.46-2.37-3.25-2.37-5.39s.79-3.96,2.37-5.46,3.52-2.25,5.83-2.25,4.25.75,5.83,2.25c1.58,1.5,2.37,3.32,2.37,5.46s-.79,3.93-2.37,5.39ZM1097.15,101.31V30.09h10.1v71.23h-10.1Z"/>
  <path class="cls-1" d="M1132.93,101.31V.68h10.1v100.63h-10.1Z"/>
  <path class="cls-1" d="M1168.7,101.31V.68h10.1v100.63h-10.1Z"/>
  <path class="cls-1" d="M1275.22,65.97c0,1.23-.09,2.75-.27,4.57h-64.51c1.22,5.87,4.31,10.6,9.28,14.19,4.97,3.59,11.07,5.39,18.3,5.39,10.53,0,18.57-3.02,24.12-9.07h11.86c-3.07,6.69-7.83,12.02-14.26,16-6.44,3.98-13.77,5.97-21.99,5.97-10.84,0-19.87-3.57-27.07-10.71-7.21-7.14-10.81-16.02-10.81-26.64s3.6-19.49,10.81-26.61c7.21-7.12,16.18-10.68,26.94-10.68s19.71,3.56,26.87,10.68c7.16,7.12,10.74,16.09,10.74,26.91ZM1255.57,46.6c-5.01-3.59-11-5.39-17.96-5.39s-12.93,1.8-17.92,5.39c-4.99,3.59-8.08,8.28-9.25,14.05h54.48c-1.22-5.78-4.34-10.46-9.35-14.05Z"/>
  <path class="cls-1" d="M1345.08,97.08c-5.92,3.96-13.41,5.94-22.46,5.94s-16.52-2.26-22.4-6.79c-5.87-4.52-8.81-10.24-8.81-17.16h10.37c0,3.37,1.94,6.1,5.83,8.19,3.88,2.09,8.94,3.14,15.18,3.14s11.07-.89,14.91-2.66c3.84-1.77,5.76-4.09,5.76-6.96,0-2.5-1.88-4.57-5.62-6.21-3.75-1.64-9.65-3.07-17.69-4.3-18.34-2.68-27.51-9.57-27.51-20.67,0-6.5,2.82-11.67,8.47-15.49,5.65-3.82,12.83-5.73,21.55-5.73s16.03,2.16,21.65,6.48c5.62,4.32,8.44,9.85,8.44,16.58h-10.57c0-3.09-1.8-5.62-5.39-7.57-3.59-1.96-8.3-2.93-14.13-2.93s-10.41.84-14.03,2.52c-3.62,1.68-5.42,3.87-5.42,6.55,0,2.41,1.83,4.41,5.49,6,3.66,1.59,9.33,2.96,17.01,4.09,18.88,3,28.3,9.94,28.26,20.81,0,6.82-2.96,12.21-8.88,16.17Z"/>
  <path class="cls-1" d="M0,125.76v-6.98h1359.24v6.98H0Z"/>
</svg>